<svg width="49" height="49" viewBox="0 0 49 49" fill="none" xmlns="http://www.w3.org/2000/svg">
<path d="M35.1164 46.4479C31.1556 46.4479 27.4397 44.345 25.4185 40.9354C24.3568 39.2204 23.7852 37.1788 23.7852 35.1167C23.7852 28.8692 28.8689 23.7855 35.1164 23.7855C41.3639 23.7855 46.4477 28.8692 46.4477 35.1167C46.4477 37.1992 45.876 39.2204 44.7939 40.9763C42.7931 44.345 39.0772 46.4479 35.1164 46.4479ZM35.1164 26.848C30.5635 26.848 26.8477 30.5638 26.8477 35.1167C26.8477 36.6275 27.256 38.0976 28.0318 39.3634C29.5427 41.8951 32.1764 43.3854 35.1164 43.3854C38.0564 43.3854 40.6902 41.895 42.1806 39.3837C42.9768 38.0975 43.3852 36.6275 43.3852 35.1167C43.3852 30.5638 39.6693 26.848 35.1164 26.848Z" fill="#1A740E"/>
<path d="M33.708 39.0572C33.3201 39.0572 32.9322 38.9142 32.6259 38.6079L30.2168 36.1988C29.6247 35.6067 29.6247 34.6267 30.2168 34.0346C30.8089 33.4425 31.7889 33.4425 32.3809 34.0346L33.7489 35.4026L37.8934 31.5643C38.5264 30.9926 39.4859 31.0334 40.0576 31.6459C40.6293 32.2584 40.5884 33.2384 39.9759 33.8101L34.7493 38.6284C34.4634 38.9346 34.0755 39.0572 33.708 39.0572Z" fill="#1A740E"/>
<path d="M24.4999 44.2021C23.867 44.2021 23.2341 44.1205 22.7237 43.9367C17.497 42.1605 2.552 33.5038 2.552 17.7421C2.552 10.5963 8.32992 4.79787 15.4349 4.79787C18.8241 4.79787 22.1112 6.16584 24.4999 8.55459C26.8887 6.16584 30.1758 4.79787 33.5649 4.79787C40.6699 4.79787 46.4478 10.5963 46.4478 17.7421C46.4478 21.7233 45.4883 25.5413 43.5895 29.1142C43.3649 29.5429 42.9362 29.8492 42.4462 29.9105C41.9562 29.9717 41.4662 29.8083 41.1191 29.4408C39.5266 27.7666 37.4033 26.8275 35.1166 26.8275C30.5637 26.8275 26.8478 30.5433 26.8478 35.0963C26.8478 37.1175 27.6033 39.0775 28.9712 40.6088C29.2978 40.9763 29.4203 41.4662 29.3183 41.9358C29.2162 42.4054 28.8895 42.8138 28.4608 43.0179C27.6441 43.3854 26.9091 43.6917 26.2353 43.9163C25.7453 44.1204 25.1328 44.2021 24.4999 44.2021ZM15.4349 7.86037C10.0245 7.86037 5.6145 12.2908 5.6145 17.7421C5.6145 31.7071 19.0282 39.4245 23.7241 41.0375C24.112 41.1804 24.8878 41.16 25.2553 41.0375C25.3166 41.017 25.3778 40.9967 25.4391 40.9763C24.357 39.2204 23.7853 37.1992 23.7853 35.1167C23.7853 28.8692 28.8691 23.7855 35.1166 23.7855C37.4849 23.7855 39.8124 24.5409 41.7316 25.9292C42.8341 23.3159 43.3853 20.58 43.3853 17.7421C43.3853 12.2908 38.9753 7.86037 33.5649 7.86037C30.5024 7.86037 27.5624 9.33048 25.7249 11.8009C25.1532 12.5767 23.8466 12.5767 23.2749 11.8009C21.4374 9.33048 18.4974 7.86037 15.4349 7.86037Z" fill="#1A740E"/>
</svg>
