<svg width="20" height="20" viewBox="0 0 20 20" fill="none" xmlns="http://www.w3.org/2000/svg">
<g clip-path="url(#clip0_2018_185)">
<path d="M3.63713 19.9006V18.5768C3.63713 18.0693 3.39702 17.7384 2.98546 17.7384C2.77971 17.7384 2.55678 17.8267 2.40244 18.1135C2.28246 17.8708 2.11101 17.7384 1.85379 17.7384C1.68226 17.7384 1.51088 17.8046 1.37364 18.0473V17.7826H1.01355V19.9006H1.37364V18.7312C1.37364 18.3562 1.52799 18.1797 1.7681 18.1797C2.00806 18.1797 2.12819 18.3782 2.12819 18.7312V19.9006H2.48828V18.7312C2.48828 18.3562 2.65966 18.1797 2.88258 18.1797C3.1227 18.1797 3.24267 18.3782 3.24267 18.7312V19.9006H3.63713ZM8.96983 17.7826H8.38689V17.1428H8.0268V17.7826H7.701V18.2017H8.02672V19.1725C8.02672 19.6579 8.18107 19.9447 8.59264 19.9447C8.74698 19.9447 8.91836 19.8785 9.03849 19.7903L8.93554 19.3931C8.83267 19.4814 8.71269 19.5035 8.62693 19.5035C8.45547 19.5035 8.38689 19.3711 8.38689 19.1504V18.2017H8.96983V17.7826ZM12.0221 17.7383C11.8163 17.7383 11.6792 17.8708 11.5934 18.0473V17.7826H11.2333V19.9006H11.5934V18.7092C11.5934 18.3562 11.7134 18.1576 11.9363 18.1576C12.0049 18.1576 12.0907 18.1798 12.1593 18.2018L12.2621 17.7606C12.1935 17.7384 12.0907 17.7384 12.0221 17.7384V17.7383ZM7.40949 17.959C7.23796 17.8046 6.99793 17.7384 6.74071 17.7384C6.32922 17.7384 6.0549 18.0032 6.0549 18.4224C6.0549 18.7754 6.26064 18.9739 6.62073 19.0402L6.79218 19.0623C6.98082 19.1063 7.08369 19.1725 7.08369 19.2829C7.08369 19.4372 6.94653 19.5476 6.70642 19.5476C6.46638 19.5476 6.27775 19.4372 6.15769 19.327L5.98624 19.68C6.17487 19.8564 6.43209 19.9447 6.68923 19.9447C7.16938 19.9447 7.44378 19.6579 7.44378 19.2608C7.44378 18.8857 7.22086 18.6871 6.87787 18.621L6.70642 18.5988C6.55207 18.5767 6.43209 18.5327 6.43209 18.4004C6.43209 18.2459 6.55207 18.1576 6.74071 18.1576C6.94653 18.1576 7.15227 18.2679 7.25515 18.3341L7.40949 17.959ZM16.9777 17.7384C16.7718 17.7384 16.6347 17.8708 16.5489 18.0473V17.7826H16.1888V19.9006H16.5489V18.7092C16.5489 18.3562 16.669 18.1576 16.8918 18.1576C16.9605 18.1576 17.0463 18.1798 17.1148 18.2018L17.2177 17.7606C17.1491 17.7384 17.0463 17.7384 16.9777 17.7384ZM12.3822 18.8416C12.3822 19.4814 12.7251 19.9447 13.2567 19.9447C13.4967 19.9447 13.6682 19.8785 13.8397 19.7021L13.6682 19.327C13.531 19.4594 13.3939 19.5255 13.2395 19.5255C12.948 19.5255 12.7423 19.2608 12.7423 18.8416C12.7423 18.4445 12.948 18.1797 13.2395 18.1576C13.3939 18.1576 13.531 18.2238 13.6682 18.3562L13.8397 17.9812C13.6682 17.8046 13.4967 17.7384 13.2567 17.7384C12.7251 17.7384 12.3822 18.2018 12.3822 18.8416ZM15.7088 18.8416V17.7826H15.3487V18.0473C15.2286 17.8488 15.0572 17.7384 14.8342 17.7384C14.3713 17.7384 14.0112 18.2018 14.0112 18.8416C14.0112 19.4814 14.3713 19.9447 14.8342 19.9447C15.0743 19.9447 15.2458 19.8344 15.3487 19.6358V19.9006H15.7088V18.8416ZM14.3884 18.8416C14.3884 18.4665 14.577 18.1576 14.8856 18.1576C15.1771 18.1576 15.383 18.4445 15.383 18.8416C15.383 19.2166 15.1771 19.5255 14.8856 19.5255C14.577 19.5034 14.3884 19.2166 14.3884 18.8416ZM10.0845 17.7384C9.60433 17.7384 9.26134 18.1797 9.26134 18.8416C9.26134 19.5035 9.60425 19.9447 10.1016 19.9447C10.3416 19.9447 10.5817 19.8564 10.7704 19.6579L10.5988 19.327C10.4617 19.4594 10.2902 19.5476 10.1188 19.5476C9.89584 19.5476 9.67291 19.4152 9.62143 19.0401H10.8389V18.8637C10.8561 18.1797 10.5475 17.7384 10.0845 17.7384ZM10.0845 18.1355C10.3073 18.1355 10.4618 18.3121 10.496 18.6431H9.63862C9.67291 18.3562 9.82726 18.1355 10.0845 18.1355ZM19.0182 18.8416V16.9442H18.6581V18.0473C18.538 17.8488 18.3666 17.7384 18.1436 17.7384C17.6807 17.7384 17.3206 18.2018 17.3206 18.8416C17.3206 19.4814 17.6807 19.9447 18.1436 19.9447C18.3837 19.9447 18.5552 19.8344 18.6581 19.6358V19.9006H19.0182V18.8416ZM17.6979 18.8416C17.6979 18.4665 17.8864 18.1576 18.1951 18.1576C18.4866 18.1576 18.6924 18.4445 18.6924 18.8416C18.6924 19.2166 18.4866 19.5255 18.1951 19.5255C17.8864 19.5034 17.6979 19.2166 17.6979 18.8416ZM5.66044 18.8416V17.7826H5.30035V18.0473C5.18029 17.8488 5.00884 17.7384 4.78591 17.7384C4.32295 17.7384 3.96286 18.2018 3.96286 18.8416C3.96286 19.4814 4.32295 19.9447 4.78591 19.9447C5.02602 19.9447 5.19747 19.8344 5.30035 19.6358V19.9006H5.66044V18.8416ZM4.32295 18.8416C4.32295 18.4665 4.51158 18.1576 4.8202 18.1576C5.11171 18.1576 5.31753 18.4445 5.31753 18.8416C5.31753 19.2166 5.11171 19.5255 4.8202 19.5255C4.51158 19.5034 4.32295 19.2166 4.32295 18.8416Z" fill="#B2B7C2"/>
<path d="M7.28943 1.69881H12.6908V14.1864H7.28943V1.69881Z" fill="#FF5F00"/>
<path d="M7.63252 7.94261C7.63252 5.40543 8.55844 3.15498 9.98162 1.69879C8.93572 0.639799 7.61541 0 6.17505 0C2.76262 0 0.00195312 3.55206 0.00195312 7.94261C0.00195312 12.3331 2.76262 15.8852 6.17497 15.8852C7.61533 15.8852 8.93564 15.2454 9.98162 14.1863C8.55844 12.7523 7.63252 10.4798 7.63252 7.94261Z" fill="#EB001B"/>
<path d="M19.9783 7.94261C19.9783 12.3331 17.2177 15.8852 13.8053 15.8852C12.3649 15.8852 11.0446 15.2454 9.99866 14.1863C11.439 12.7303 12.3478 10.4798 12.3478 7.94261C12.3478 5.40543 11.4218 3.15498 9.99866 1.69879C11.0446 0.639799 12.3649 0 13.8053 0C17.2177 0 19.9783 3.57417 19.9783 7.94261Z" fill="#F79E1B"/>
</g>
<defs>
<clipPath id="clip0_2018_185">
<rect width="20" height="20" fill="white"/>
</clipPath>
</defs>
</svg>
