<svg width="49" height="49" viewBox="0 0 49 49" fill="none" xmlns="http://www.w3.org/2000/svg">
<path d="M30.5636 46.4479H18.3136C7.22739 46.4479 2.49072 41.7113 2.49072 30.625V18.375C2.49072 7.28875 7.22739 2.55208 18.3136 2.55208H30.5636C41.6499 2.55208 46.3866 7.28875 46.3866 18.375V30.625C46.3866 41.7113 41.6703 46.4479 30.5636 46.4479ZM18.3136 5.61458C8.90156 5.61458 5.55322 8.96292 5.55322 18.375V30.625C5.55322 40.0371 8.90156 43.3854 18.3136 43.3854H30.5636C39.9757 43.3854 43.3241 40.0371 43.3241 30.625V18.375C43.3241 8.96292 39.9757 5.61458 30.5636 5.61458H18.3136Z" fill="#7A4102"/>
<path d="M23.3772 36.8725C22.8872 36.8725 21.703 36.6887 21.0088 34.9125L18.6813 29.0325C18.3547 28.1954 17.1909 27.4196 16.313 27.4196L4.06299 27.4604C3.22591 27.4604 2.53174 26.7867 2.53174 25.9292C2.53174 25.0921 3.20549 24.3979 4.06299 24.3979L16.313 24.3571H16.3334C18.4772 24.3571 20.7638 25.9087 21.5601 27.9096L23.418 32.6054L27.6238 21.9479C28.2567 20.3554 29.3797 20.1308 29.8492 20.09C30.3188 20.0696 31.4622 20.1717 32.2584 21.6825L34.3817 25.7046C34.7492 26.3987 35.8517 27.0725 36.648 27.0725H44.9372C45.7742 27.0725 46.4684 27.7667 46.4684 28.6037C46.4684 29.4408 45.7742 30.135 44.9372 30.135H36.648C34.7084 30.135 32.5851 28.8487 31.6867 27.1337L30.0942 24.1121L25.8067 34.9125C25.0513 36.6683 23.8467 36.8725 23.3772 36.8725Z" fill="#7A4102"/>
</svg>
