<svg width="49" height="49" viewBox="0 0 49 49" fill="none" xmlns="http://www.w3.org/2000/svg">
<path d="M35.627 46.4479C33.3199 46.4479 30.8903 45.8967 28.3791 44.835C25.9291 43.7938 23.4587 42.3646 21.0495 40.6292C18.6608 38.8733 16.3537 36.9133 14.1691 34.7696C12.0049 32.585 10.0449 30.2779 8.3095 27.9096C6.55367 25.4596 5.14492 23.0096 4.1445 20.6413C3.08284 18.1096 2.552 15.6596 2.552 13.3525C2.552 11.76 2.83784 10.2492 3.38909 8.84042C3.96075 7.39084 4.8795 6.04334 6.12492 4.87959C7.697 3.32792 9.49367 2.55209 11.4128 2.55209C12.2091 2.55209 13.0258 2.73584 13.7199 3.0625C14.5162 3.43 15.1899 3.98125 15.6799 4.71625L20.4166 11.3925C20.8453 11.9846 21.172 12.5563 21.3966 13.1279C21.662 13.7404 21.8049 14.3529 21.8049 14.945C21.8049 15.7208 21.5803 16.4763 21.1516 17.1908C20.8453 17.7421 20.3758 18.3342 19.7837 18.9263L18.3953 20.3758C18.4158 20.4371 18.4362 20.4779 18.4566 20.5188C18.7016 20.9475 19.1916 21.6825 20.1308 22.785C21.1312 23.9283 22.0703 24.9696 23.0095 25.9292C24.2141 27.1133 25.2145 28.0525 26.1537 28.8283C27.3174 29.8083 28.0728 30.2983 28.522 30.5229L28.4812 30.625L29.9716 29.155C30.6045 28.5221 31.217 28.0525 31.8091 27.7463C32.932 27.0521 34.3612 26.9296 35.7903 27.5217C36.3212 27.7463 36.8928 28.0525 37.5053 28.4813L44.2837 33.2996C45.0391 33.81 45.5903 34.4633 45.917 35.2392C46.2233 36.015 46.3662 36.7296 46.3662 37.4442C46.3662 38.4242 46.1416 39.4042 45.7128 40.3229C45.2841 41.2417 44.7533 42.0379 44.0795 42.7729C42.9158 44.0592 41.6499 44.9779 40.1799 45.57C38.7712 46.1417 37.2399 46.4479 35.627 46.4479ZM11.4128 5.61459C10.2899 5.61459 9.24867 6.10459 8.24825 7.08459C7.30909 7.9625 6.65575 8.92209 6.24742 9.96334C5.81867 11.025 5.6145 12.1479 5.6145 13.3525C5.6145 15.2513 6.06367 17.3133 6.962 19.4367C7.88075 21.6008 9.167 23.8467 10.8003 26.0925C12.4337 28.3383 14.2916 30.5229 16.3333 32.585C18.3749 34.6063 20.5799 36.4846 22.8462 38.1383C25.0512 39.7513 27.3174 41.0579 29.5633 41.9971C33.0545 43.4875 36.3212 43.8346 39.0162 42.7117C40.0574 42.2829 40.9762 41.6296 41.8133 40.6904C42.2828 40.18 42.6503 39.6288 42.9566 38.9754C43.2016 38.465 43.3241 37.9342 43.3241 37.4033C43.3241 37.0767 43.2628 36.75 43.0995 36.3825C43.0383 36.26 42.9158 36.0354 42.5278 35.77L35.7495 30.9517C35.3412 30.6658 34.9737 30.4617 34.6266 30.3188C34.1774 30.135 33.9937 29.9513 33.2995 30.38C32.8912 30.5842 32.5237 30.8904 32.1153 31.2988L30.5637 32.83C29.7674 33.6058 28.5424 33.7896 27.6033 33.4425L27.052 33.1975C26.2149 32.7483 25.2349 32.0542 24.1528 31.1354C23.1728 30.2983 22.1112 29.3183 20.8249 28.0525C19.8245 27.0317 18.8241 25.9496 17.7828 24.745C16.8233 23.6221 16.1291 22.6625 15.7003 21.8663L15.4553 21.2538C15.3328 20.7842 15.292 20.5188 15.292 20.2329C15.292 19.4979 15.5574 18.8446 16.0678 18.3342L17.5991 16.7417C18.0074 16.3333 18.3137 15.9454 18.5178 15.5983C18.6812 15.3329 18.7424 15.1083 18.7424 14.9042C18.7424 14.7408 18.6812 14.4958 18.5791 14.2508C18.4362 13.9242 18.2116 13.5567 17.9258 13.1688L13.1891 6.47209C12.9849 6.18625 12.7399 5.98209 12.4337 5.83917C12.107 5.69625 11.7599 5.61459 11.4128 5.61459ZM28.4812 30.6454L28.1545 32.0338L28.7058 30.6046C28.6037 30.5842 28.522 30.6046 28.4812 30.6454Z" fill="#071971"/>
<path d="M37.7708 19.9062C36.9337 19.9062 36.2396 19.2121 36.2396 18.375C36.2396 17.64 35.5046 16.1087 34.2796 14.8021C33.075 13.5158 31.7479 12.7604 30.625 12.7604C29.7879 12.7604 29.0938 12.0662 29.0938 11.2292C29.0938 10.3921 29.7879 9.69791 30.625 9.69791C32.6054 9.69791 34.6879 10.7596 36.505 12.6992C38.1996 14.5162 39.3021 16.7417 39.3021 18.375C39.3021 19.2121 38.6079 19.9062 37.7708 19.9062Z" fill="#071971"/>
<path d="M44.9167 19.9063C44.0796 19.9063 43.3854 19.2121 43.3854 18.375C43.3854 11.3313 37.6688 5.61459 30.625 5.61459C29.7879 5.61459 29.0938 4.92042 29.0938 4.08334C29.0938 3.24625 29.7879 2.55209 30.625 2.55209C39.3429 2.55209 46.4479 9.65709 46.4479 18.375C46.4479 19.2121 45.7537 19.9063 44.9167 19.9063Z" fill="#071971"/>
</svg>
